# xmcd
#
# Track frame offsets:
#	150
#	12395
#	28206
#	53062
#	74014
#	91087
#	112989
#	134319
#	146623
#	164421
#	187947
#
# Disc length: 3118 seconds
#
# Revision: 0
# Processed by: cddbd v1.5.2PL0 Copyright (c) Steve Scherf et al.
# Submitted via: EasyCDDAExtractor 16.1.0.1
#
DISCID=950c2c0b
DTITLE=R. Kelly - U Saved Me HAPPY PEOPLE
DYEAR=2004
DGENRE=R&B/Rap/Hip Hop
TTITLE0=Weatherman
TTITLE1=Red Carpet ''Pause, Flash''
TTITLE2=Love Signals
TTITLE3=Love Street
TTITLE4=Ladies' Night ''Treat Her Like Heaven''
TTITLE5=If
TTITLE6=The Greatest Show On Earth
TTITLE7=It's Your Birthday
TTITLE8=Steppin' Into Heaven
TTITLE9=If I Could Make The World Dance
TTITLE10=Happy People
EXTD=
EXTT0=
EXTT1=
EXTT2=
EXTT3=
EXTT4=
EXTT5=
EXTT6=
EXTT7=
EXTT8=
EXTT9=
EXTT10=
PLAYORDER=
